Coordinates
version=1
nRows=13
nColumns=36
inDegrees=yes

Units are S.I. units (second, meters, Newtons, ...)
If the header above contains a line with 'inDegrees', this indicates whether rotational values are in degrees (yes) or radians (no).

endheader
time	pelvis_tilt	pelvis_list	pelvis_rotation	pelvis_tx	pelvis_ty	pelvis_tz	hip_flexion_r	hip_adduction_r	hip_rotation_r	knee_angle_r	knee_angle_r_beta	ankle_angle_r	subtalar_angle_r	mtp_angle_r	hip_flexion_l	hip_adduction_l	hip_rotation_l	knee_angle_l	knee_angle_l_beta	ankle_angle_l	subtalar_angle_l	mtp_angle_l	lumbar_extension	lumbar_bending	lumbar_rotation	arm_flex_r	arm_add_r	arm_rot_r	elbow_flex_r	pro_sup_r	arm_flex_l	arm_add_l	arm_rot_l	elbow_flex_l	pro_sup_l
      2.10000000	    -26.15116978	     -3.02388975	      3.30693350	     -0.28147251	      0.69191249	     -0.54127721	     83.21626627	     -4.89504908	     -0.30068552	     86.07006903	      1.50220609	     25.27888136	    -20.00664447	     -7.45607846	     85.02621814	     -0.91567188	     13.39363484	     82.55856248	      1.44091874	     22.10870712	    -11.90140578	     -7.45607846	    -38.27104978	      3.66510866	     -4.82833327	     36.76530569	    -11.99928288	      9.52400595	     34.94047007	     94.37155241	     26.50506326	    -12.02149349	    -10.56117894	     33.48311453	     80.85035130
      2.11000000	    -24.77931408	     -2.72825250	      3.44395011	     -0.27718927	      0.70002599	     -0.54110838	     80.74906829	     -4.71358460	      0.04370255	     85.12522517	      1.48571546	     25.10936060	    -20.46627714	     -7.45978534	     82.47774944	     -0.99228031	     13.07292753	     81.55405477	      1.42338677	     22.40890204	    -11.67177680	     -7.45978534	    -38.16782360	      3.35148312	     -4.62616228	     37.44390306	    -11.68008354	      5.45490638	     39.22393767	     94.50716475	     28.82379156	    -11.65779937	    -10.02452636	     36.14510984	     80.07699980
      2.12000000	    -23.70199842	     -2.39568246	      3.39428130	     -0.27316826	      0.70723509	     -0.54067560	     78.75523250	     -4.46392284	      0.37129704	     84.28373038	      1.47102860	     24.67762058	    -21.04242045	     -7.46262761	     80.20443652	     -1.03472454	     12.87379932	     80.50275677	      1.40503816	     22.31746221	    -12.12160221	     -7.46262761	    -37.61668252	      2.89330633	     -4.56524227	     38.24088322	    -11.44433908	      3.07371223	     43.68095491	     94.78264179	     30.38323254	    -11.68826150	     -8.61810240	     40.21994338	     79.57550356
      2.13000000	    -22.80317861	     -2.03738271	      3.33619383	     -0.26920300	      0.71367767	     -0.54089170	     77.05342074	     -4.47594387	      0.58136779	     83.55604900	      1.45832816	     24.39839013	    -21.24344933	     -7.46355150	     78.26009024	     -0.89825175	     12.69384338	     79.65977885	      1.39032542	     22.14651505	    -12.63726401	     -7.46355150	    -36.70170327	      2.47044668	     -4.79157402	     39.21992387	    -11.39600414	      2.25146156	     48.23541927	     95.00297773	     31.39027029	    -11.96163430	     -7.05100941	     45.27008695	     79.84173808
      2.14000000	    -21.75319943	     -1.75038083	      3.32120148	     -0.26480069	      0.72003852	     -0.54155160	     75.19253697	     -4.66440866	      0.62402683	     82.92094184	      1.44724345	     24.15806886	    -21.25960087	     -7.46450712	     76.44763273	     -1.11496301	     11.99617349	     79.08993851	      1.38037983	     21.82250241	    -12.64264070	     -7.46450712	    -35.77099780	      2.14499782	     -4.97887419	     40.15900799	    -11.35801239	      1.35254002	     53.19630973	     95.16569765	     32.44167885	    -12.19868804	     -5.65134453	     50.64310735	     79.98156364
      2.15000000	    -20.46452629	     -1.53029398	      3.30019350	     -0.25990237	      0.72680396	     -0.54224166	     73.00550539	     -4.82466716	      0.60230791	     82.27107926	      1.43590121	     24.01099400	    -21.20859840	     -7.46506303	     74.38080488	     -1.58191097	     11.11454037	     78.51690593	      1.37037853	     21.64413197	    -12.28333206	     -7.46506303	    -34.95748401	      1.88353475	     -5.22976693	     41.39242790	    -11.50560038	      1.38995491	     58.11798492	     95.42435308	     33.42982072	    -12.60658394	     -4.14252098	     56.31525946	     80.32505171
      2.16000000	    -19.29527346	     -1.34638675	      3.26128636	     -0.25486785	      0.73368637	     -0.54290583	     70.89719449	     -4.89844480	      0.61268362	     81.51752198	      1.42274916	     23.82686305	    -21.23248391	     -7.46562561	     72.21430238	     -1.77749093	     10.66368265	     77.72490226	      1.35655546	     21.71128024	    -12.18422379	     -7.46562561	    -34.02927279	      1.65027536	     -5.46480747	     42.62965825	    -11.66852922	      1.48090460	     63.55669056	     95.69334103	     34.32681575	    -13.17930385	     -2.66630860	     62.80313360	     80.73138691
      2.17000000	    -18.07465505	     -1.20167952	      3.10822504	     -0.24951416	      0.74103585	     -0.54354046	     68.66002331	     -4.86977638	      0.58382632	     80.64055214	      1.40744315	     23.56944693	    -21.25471312	     -7.46602037	     69.86518078	     -1.86088011	     10.52688875	     76.87848808	      1.34178274	     21.71744751	    -12.32558948	     -7.46602037	    -33.09951014	      1.37326865	     -5.56531397	     44.16397379	    -11.95356867	      1.69213641	     68.77082938	     95.96832388	     35.44967422	    -13.71170348	     -1.30356939	     69.21944407	     81.25783957
      2.18000000	    -17.08684495	     -1.08136625	      2.83967504	     -0.24366209	      0.74848587	     -0.54393248	     66.56991252	     -4.69529155	      0.64485638	     79.64553414	      1.39007681	     23.33854460	    -21.25833587	     -7.46640921	     67.72972737	     -2.12720805	     10.21185054	     75.99533581	      1.32636883	     21.66393607	    -12.56767336	     -7.46640921	    -31.81309343	      1.09598619	     -5.61212550	     45.66466915	    -12.09609643	      1.95246906	     74.19049054	     96.22083900	     36.51642034	    -14.27825621	     -0.10556120	     75.85491667	     81.81218356
      2.19000000	    -16.16289344	     -0.96991092	      2.54228129	     -0.23749350	      0.75674178	     -0.54447068	     64.37742829	     -4.57697549	      0.65367673	     78.36882673	      1.36779406	     23.04986881	    -21.06638991	     -7.46671450	     65.43566328	     -2.39077155	      9.88379227	     74.76522054	      1.30489926	     21.54795636	    -12.78895392	     -7.46671450	    -30.37514177	      0.81703145	     -5.56913169	     47.35035506	    -12.39223493	      2.43419638	     79.32293534	     96.47186248	     37.80185519	    -14.77020972	      1.06004273	     82.30580857	     82.39952804
      2.20000000	    -15.28273630	     -0.77214383	      2.20959757	     -0.23126119	      0.76547760	     -0.54503929	     62.22824613	     -4.56824705	      0.64810221	     77.05250324	      1.34481988	     22.72365212	    -20.96160390	     -7.47683889	     63.11499929	     -2.60122490	      9.45029487	     73.47256721	      1.28233821	     21.09923345	    -13.56774231	     -7.47683889	    -29.05028687	      0.53596841	     -5.81494284	     49.48021237	    -12.53895795	      3.34529783	     85.39268113	     92.25424265	     38.93219336	    -15.64030998	      1.86712965	     90.45369345	     76.50948053
      2.21000000	    -14.53123320	     -0.75684354	      1.67510094	     -0.22483381	      0.77505741	     -0.54499828	     60.01173737	     -4.21525047	      0.63438805	     75.33639747	      1.31486818	     22.32231822	    -20.71013091	     -7.47714770	     60.76780998	     -3.19258334	      9.03349010	     71.88295608	      1.25459426	     20.96985363	    -13.55092800	     -7.47714770	    -27.44304859	      0.29773830	     -5.47487946	     51.68443900	    -13.09780883	      4.22314489	     90.70169652	     92.71767869	     40.57494747	    -16.39918242	      3.20875324	     97.02774072	     77.27874975
      2.22000000	    -13.96204587	     -0.76494910	      1.06979495	     -0.21832458	      0.78527477	     -0.54475887	     57.88352940	     -3.80409513	      0.64480571	     73.38243912	      1.28076518	     21.71806708	    -20.57632223	     -7.47749463	     58.49519800	     -3.92859800	      8.41500757	     70.05075619	      1.22261634	     20.73598480	    -13.41607325	     -7.47749463	    -25.65509214	      0.12005312	     -5.09461870	     54.10668503	    -13.64593145	      5.16509929	     96.08881019	     93.17274559	     42.32625339	    -17.14853470	      4.27973442	    103.69255462	     78.02874400
